<svg width="18" height="17" viewBox="0 0 18 17" fill="none" xmlns="http://www.w3.org/2000/svg">
<path d="M4.55556 15.5001H1.88889C1.65314 15.5001 1.42705 15.4079 1.26035 15.2438C1.09365 15.0797 1 14.8572 1 14.6251V5.00012" stroke="#1C3144" stroke-width="1.5" stroke-linecap="round" stroke-linejoin="round"/>
<path d="M8.1111 8.5H13.4444M16.1111 1.5H5.44443C5.20868 1.5 4.98259 1.59219 4.81589 1.75628C4.64919 1.92038 4.55554 2.14294 4.55554 2.375V11.125C4.55554 11.3571 4.64919 11.5796 4.81589 11.7437C4.98259 11.9078 5.20868 12 5.44443 12H8.1111V14.625L12.5555 12H16.1111C16.3468 12 16.5729 11.9078 16.7396 11.7437C16.9063 11.5796 17 11.3571 17 11.125V2.375C17 2.14294 16.9063 1.92038 16.7396 1.75628C16.5729 1.59219 16.3468 1.5 16.1111 1.5V1.5ZM8.1111 5H13.4444H8.1111Z" stroke="#1C3144" stroke-width="1.5" stroke-linecap="round" stroke-linejoin="round"/>
</svg>
