<svg width="17" height="17" viewBox="0 0 17 17" fill="none" xmlns="http://www.w3.org/2000/svg">
<path fill-rule="evenodd" clip-rule="evenodd" d="M3.78823 3.97452C2.58799 5.17475 1.91371 6.80261 1.91371 8.5C1.91371 10.1974 2.58799 11.8253 3.78823 13.0255C4.38252 13.6198 5.08805 14.0912 5.86453 14.4128C6.64102 14.7345 7.47325 14.9 8.31371 14.9C9.15417 14.9 9.9864 14.7345 10.7629 14.4128C11.5394 14.0912 12.2449 13.6198 12.8392 13.0255C13.4335 12.4312 13.9049 11.7257 14.2265 10.9492C14.5482 10.1727 14.7137 9.34046 14.7137 8.5C14.7137 7.65954 14.5482 6.82731 14.2265 6.05083C13.9049 5.27434 13.4335 4.56881 12.8392 3.97452C11.639 2.77428 10.0111 2.1 8.31371 2.1C6.61632 2.1 4.98846 2.77428 3.78823 3.97452ZM0.313708 8.5C0.313708 6.37827 1.15656 4.34344 2.65685 2.84315C4.15715 1.34285 6.19198 0.500001 8.31371 0.5C10.4354 0.500001 12.4703 1.34285 13.9706 2.84315C14.7134 3.58601 15.3027 4.46793 15.7047 5.43853C16.1068 6.40914 16.3137 7.44943 16.3137 8.5C16.3137 9.55057 16.1068 10.5909 15.7047 11.5615C15.3027 12.5321 14.7134 13.414 13.9706 14.1569C13.2277 14.8997 12.3458 15.489 11.3752 15.891C10.4046 16.2931 9.36428 16.5 8.31371 16.5C7.26313 16.5 6.22285 16.2931 5.25224 15.891C4.28164 15.489 3.39972 14.8997 2.65685 14.1569C1.15656 12.6566 0.313708 10.6217 0.313708 8.5ZM5.25097 8.5C5.25097 8.05817 5.60914 7.7 6.05097 7.7H7.51371L7.51371 6.23726C7.51371 5.79543 7.87188 5.43726 8.31371 5.43726C8.75554 5.43726 9.11371 5.79543 9.11371 6.23726L9.11371 7.7H10.5765C11.0183 7.7 11.3765 8.05817 11.3765 8.5C11.3765 8.94183 11.0183 9.3 10.5765 9.3H9.11371L9.11371 10.7627C9.11371 11.2046 8.75554 11.5627 8.31371 11.5627C7.87188 11.5627 7.51371 11.2046 7.51371 10.7627L7.51371 9.3H6.05097C5.60914 9.3 5.25097 8.94183 5.25097 8.5Z" fill="#3758AB"/>
</svg>
