<svg width="16" height="17" viewBox="0 0 16 17" fill="none" xmlns="http://www.w3.org/2000/svg">
<path fill-rule="evenodd" clip-rule="evenodd" d="M7.99537 2.00528C6.29921 2.00659 4.67301 2.63947 3.47452 3.76469C2.27602 4.88991 1.6034 6.41529 1.60463 8.00528C1.60524 8.79257 1.77126 9.57201 2.09322 10.2991C2.20936 10.5614 2.34498 10.815 2.4988 11.0582C2.62585 11.2591 2.8835 11.3232 3.10256 11.231C4.63951 10.584 6.3092 10.2475 8.00234 10.2485C9.74638 10.2472 11.4053 10.5953 12.9025 11.2232C13.1217 11.3151 13.3793 11.2506 13.506 11.0495C13.6594 10.8062 13.7946 10.5524 13.9103 10.29C14.2312 9.56239 14.396 8.78269 14.3954 7.9954C14.3941 6.40541 13.7192 4.88107 12.5189 3.7577C11.3187 2.63434 9.69153 2.00397 7.99537 2.00528ZM14.1314 12.8084C14.6525 12.2244 15.0766 11.5684 15.3879 10.8624C15.7889 9.9529 15.995 8.97827 15.9942 7.99417C15.9927 6.00668 15.149 4.10125 13.6487 2.69704C12.1484 1.29284 10.1144 0.504882 7.99421 0.50652C5.87401 0.508158 3.84127 1.29925 2.34315 2.70578C0.845026 4.1123 0.00425436 6.01903 0.00578989 8.00652C0.00655023 8.99062 0.214079 9.96493 0.616529 10.8738C0.928924 11.5793 1.35402 12.2347 1.87607 12.8178C1.88786 12.8319 1.90011 12.8455 1.91279 12.8586C2.05229 13.0122 2.19857 13.1607 2.35133 13.3036C3.0942 13.9989 3.9759 14.5502 4.9461 14.9261C5.91629 15.3019 6.95598 15.495 8.00579 15.4942C9.0556 15.4934 10.095 15.2987 11.0646 14.9214C12.0342 14.544 12.9151 13.9913 13.6569 13.2949C13.8094 13.1517 13.9554 13.003 14.0947 12.8492C14.1074 12.8361 14.1196 12.8225 14.1314 12.8084ZM11.4636 13.0398C11.7898 12.8427 11.7244 12.38 11.3613 12.2642C10.3082 11.9282 9.17873 11.7463 8.0029 11.7473L8.00168 11.7473C6.85557 11.7465 5.72186 11.9243 4.64573 12.2695C4.28279 12.386 4.21807 12.8489 4.54465 13.0454C4.86486 13.2381 5.20353 13.4041 5.55688 13.5409C6.33303 13.8416 7.16478 13.9961 8.00463 13.9954C8.84448 13.9948 9.67599 13.839 10.4517 13.5372C10.805 13.3997 11.1435 13.2331 11.4636 13.0398ZM7.99768 5.00281C7.57364 5.00314 7.1671 5.16136 6.86747 5.44266C6.56785 5.72397 6.39969 6.10532 6.4 6.50281C6.40031 6.90031 6.56905 7.2814 6.86911 7.56224C7.16917 7.84308 7.57596 8.00067 8 8.00034C8.42404 8.00002 8.83059 7.8418 9.13021 7.56049C9.42984 7.27919 9.59799 6.89784 9.59768 6.50034C9.59738 6.10285 9.42863 5.72176 9.12858 5.44092C8.82852 5.16008 8.42172 5.00249 7.99768 5.00281ZM5.7361 4.38375C6.33535 3.82114 7.14845 3.5047 7.99653 3.50405C8.8446 3.50339 9.65819 3.81858 10.2583 4.38026C10.8584 4.94194 11.1959 5.70411 11.1965 6.49911C11.1971 7.2941 10.8608 8.0568 10.2616 8.6194C9.66234 9.18201 8.84924 9.49845 8.00116 9.49911C7.15308 9.49976 6.33949 9.18458 5.73938 8.6229C5.13926 8.06122 4.80177 7.29904 4.80116 6.50405C4.80054 5.70905 5.13685 4.94636 5.7361 4.38375Z" fill="#1C3144"/>
<mask id="path-2-inside-1_2034_205" fill="white">
<rect y="0.512695" width="15.9884" height="14.9876" rx="1"/>
</mask>
<rect y="0.512695" width="15.9884" height="14.9876" rx="1" stroke="#1C3144" stroke-width="3" mask="url(#path-2-inside-1_2034_205)"/>
</svg>
