<svg width="18" height="18" viewBox="0 0 18 18" fill="none" xmlns="http://www.w3.org/2000/svg">
<path d="M17 10.3235V15.6176C17 15.8516 16.9064 16.076 16.7397 16.2415C16.573 16.407 16.3469 16.4999 16.1111 16.4999H1.88889C1.65314 16.4999 1.42705 16.407 1.26035 16.2415C1.09365 16.076 1 15.8516 1 15.6176V4.147C1 3.91299 1.09365 3.68856 1.26035 3.52308C1.42705 3.35761 1.65314 3.26465 1.88889 3.26465H5.44444" stroke="#1C3144" stroke-width="1.5" stroke-linecap="round" stroke-linejoin="round"/>
<path d="M12.5552 1.5L16.9997 5.02941L12.5552 8.55882V6.79412C12.5552 6.79412 8.11079 6.79412 6.33301 9.44118C6.33301 9.44118 7.2219 4.14706 12.5552 3.26471V1.5Z" stroke="#1C3144" stroke-width="1.5" stroke-linecap="round" stroke-linejoin="round"/>
</svg>
