<svg width="18" height="19" viewBox="0 0 18 19" fill="none" xmlns="http://www.w3.org/2000/svg">
<path d="M1 15.7222H13.4444H1ZM13.4444 15.7222C13.4444 16.0738 13.5487 16.4175 13.7441 16.7099C13.9394 17.0023 14.217 17.2301 14.5419 17.3647C14.8667 17.4992 15.2242 17.5344 15.569 17.4658C15.9139 17.3972 16.2307 17.2279 16.4793 16.9793C16.7279 16.7307 16.8972 16.4139 16.9658 16.069C17.0344 15.7242 16.9992 15.3667 16.8647 15.0419C16.7301 14.717 16.5023 14.4394 16.2099 14.2441C15.9175 14.0487 15.5738 13.9444 15.2222 13.9444C14.7507 13.9444 14.2985 14.1317 13.9651 14.4651C13.6317 14.7985 13.4444 15.2507 13.4444 15.7222ZM4.55556 9.5H17H4.55556ZM1 9.5C1 9.85161 1.10426 10.1953 1.29961 10.4877C1.49495 10.78 1.77261 11.0079 2.09745 11.1425C2.4223 11.277 2.77975 11.3122 3.1246 11.2436C3.46946 11.175 3.78623 11.0057 4.03486 10.7571C4.28348 10.5085 4.4528 10.1917 4.5214 9.84683C4.58999 9.50197 4.55479 9.14452 4.42023 8.81967C4.28567 8.49483 4.05781 8.21718 3.76546 8.02183C3.4731 7.82649 3.12939 7.72222 2.77778 7.72222C2.30628 7.72222 1.8541 7.90952 1.5207 8.24292C1.1873 8.57632 1 9.0285 1 9.5ZM10.7778 3.27778L17 3.27778L10.7778 3.27778ZM7.22222 3.27778H1H7.22222ZM7.22222 3.27778C7.22222 3.62939 7.32649 3.97311 7.52183 4.26546C7.71718 4.55781 7.99483 4.78568 8.31967 4.92023C8.64452 5.05479 9.00197 5.08999 9.34683 5.0214C9.69168 4.9528 10.0085 4.78348 10.2571 4.53486C10.5057 4.28623 10.675 3.96946 10.7436 3.62461C10.8122 3.27975 10.777 2.9223 10.6425 2.59745C10.5079 2.27261 10.28 1.99496 9.98768 1.79961C9.69533 1.60427 9.35161 1.5 9 1.5C8.5285 1.5 8.07632 1.6873 7.74292 2.0207C7.40952 2.3541 7.22222 2.80628 7.22222 3.27778Z" stroke="#1C3144" stroke-width="1.5" stroke-linecap="round" stroke-linejoin="round"/>
</svg>
