<svg width="16" height="16" viewBox="0 0 16 16" fill="none" xmlns="http://www.w3.org/2000/svg">
<path fill-rule="evenodd" clip-rule="evenodd" d="M8.00124 2.43826C7.61547 2.43856 7.24561 2.59103 6.97304 2.86213C6.70047 3.13322 6.54751 3.50074 6.54781 3.88383C6.5481 4.26692 6.70163 4.6342 6.97462 4.90488C7.24761 5.17555 7.6177 5.32745 8.00347 5.32715C8.38924 5.32685 8.75909 5.17439 9.03166 4.90329C9.30423 4.63219 9.45719 4.26467 9.4569 3.88158C9.4566 3.49849 9.30307 3.13121 9.03008 2.86054C8.75709 2.58986 8.38701 2.43797 8.00124 2.43826ZM5.94374 1.84154C6.48888 1.29935 7.22858 0.994416 8.00012 0.99382C8.77166 0.993224 9.51183 1.29702 10.0578 1.83837C10.6038 2.37972 10.9108 3.11428 10.9114 3.88046C10.912 4.64664 10.6061 5.38168 10.061 5.92387C9.51583 6.46606 8.77612 6.771 8.00458 6.7716C7.23305 6.77219 6.49287 6.4684 5.94689 5.92705C5.40091 5.3857 5.09385 4.65114 5.09326 3.88496C5.09267 3.11877 5.39859 2.38374 5.94374 1.84154ZM2.91256 5.33108C2.71968 5.33123 2.53475 5.40747 2.39846 5.54302C2.26218 5.67856 2.1857 5.86232 2.18585 6.05387C2.18599 6.24541 2.26276 6.42905 2.39925 6.56439C2.53575 6.69973 2.72079 6.77568 2.91368 6.77553C3.10656 6.77538 3.29149 6.69915 3.42777 6.5636C3.56406 6.42805 3.64054 6.24429 3.64039 6.05274C3.64024 5.8612 3.56348 5.67756 3.42698 5.54222C3.29049 5.40688 3.10544 5.33094 2.91256 5.33108ZM1.36916 4.52243C1.77801 4.11579 2.33279 3.88709 2.91144 3.88664C3.4901 3.88619 4.04523 4.11404 4.45471 4.52005C4.8642 4.92606 5.09449 5.47699 5.09494 6.05162C5.09538 6.62626 4.86594 7.17753 4.45708 7.58418C4.04822 7.99082 3.49345 8.21953 2.91479 8.21997C2.33614 8.22042 1.78101 7.99257 1.37152 7.58656C0.962039 7.18055 0.731744 6.62963 0.7313 6.05499C0.730856 5.48036 0.9603 4.92908 1.36916 4.52243ZM13.0944 5.32322C12.9015 5.32337 12.7166 5.3996 12.5803 5.53515C12.444 5.6707 12.3675 5.85446 12.3677 6.046C12.3678 6.23755 12.4446 6.42119 12.5811 6.55653C12.7176 6.69186 12.9026 6.76781 13.0955 6.76766C13.2884 6.76751 13.4733 6.69128 13.6096 6.55573C13.7459 6.42018 13.8224 6.23642 13.8222 6.04488C13.8221 5.85333 13.7453 5.66969 13.6088 5.53436C13.4723 5.39902 13.2873 5.32307 13.0944 5.32322ZM11.551 4.51457C11.9598 4.10792 12.5146 3.87922 13.0933 3.87877C13.6719 3.87833 14.227 4.10617 14.6365 4.51218C15.046 4.9182 15.2763 5.46912 15.2768 6.04375C15.2772 6.61839 15.0478 7.16967 14.6389 7.57631C14.23 7.98296 13.6753 8.21166 13.0966 8.21211C12.518 8.21255 11.9628 7.98471 11.5533 7.5787C11.1439 7.17268 10.9136 6.62176 10.9131 6.04713C10.9127 5.47249 11.1421 4.92121 11.551 4.51457ZM8.00626 8.93775C7.42462 8.9382 6.85646 9.11169 6.37506 9.43585C5.92126 9.74142 5.56418 10.1677 5.34406 10.6649L5.17018 12.5516L10.8479 12.5472L10.6711 10.6608C10.4502 10.1639 10.0925 9.7382 9.63822 9.43333C9.15632 9.10992 8.58789 8.9373 8.00626 8.93775ZM12.3727 12.546L14.5545 12.5443L14.5539 11.8221C14.5539 11.8221 14.5539 11.8222 14.5539 11.8221C14.5537 11.522 14.4593 11.2293 14.2838 10.9849C14.1083 10.7404 13.8605 10.5564 13.5748 10.4583C13.2891 10.3601 12.9798 10.3529 12.6897 10.4374C12.5176 10.4876 12.3573 10.5686 12.2164 10.6756C12.3178 11.042 12.3718 11.4273 12.3721 11.8238L12.3727 12.546ZM11.5919 9.35267C11.2862 8.91637 10.9008 8.53727 10.4527 8.23655C9.72994 7.75151 8.87745 7.49264 8.00514 7.49331C7.13284 7.49398 6.28074 7.75418 5.55876 8.24033C5.11113 8.54174 4.72626 8.92144 4.4213 9.35821C4.20703 9.22973 3.97573 9.1285 3.73264 9.05805C3.15228 8.88984 2.53357 8.90538 1.9625 9.10249C1.39144 9.2996 0.896407 9.66851 0.546214 10.1579C0.196022 10.6473 0.00807166 11.2329 0.00849126 11.8333L0.0096072 13.2778C0.00991534 13.6766 0.335776 13.9997 0.737438 13.9994L15.2829 13.9882C15.6845 13.9879 16.0099 13.6643 16.0096 13.2654L16.0085 11.821C16.008 11.2206 15.8191 10.6352 15.4682 10.1464C15.1172 9.65752 14.6216 9.28938 14.0503 9.09315C13.4789 8.89692 12.8602 8.88234 12.2801 9.05144C12.0371 9.12227 11.8059 9.22386 11.5919 9.35267ZM3.79884 10.6821C3.65774 10.5754 3.49734 10.4946 3.32511 10.4446C3.03493 10.3605 2.72557 10.3683 2.44004 10.4669C2.15451 10.5654 1.90699 10.7499 1.7319 10.9946C1.55681 11.2393 1.46284 11.532 1.46304 11.8322C1.46304 11.8322 1.46304 11.8322 1.46304 11.8322L1.46359 12.5544L3.64541 12.5527L3.64485 11.8305C3.64455 11.434 3.69795 11.0487 3.79884 10.6821Z" fill="#1C3144"/>
</svg>
